<svg width="117" height="51" viewBox="0 0 117 51" fill="none" xmlns="http://www.w3.org/2000/svg">
<path d="M55.9531 9.04687C56.6899 9.65735 57.1734 10.2459 57.3213 11.2196C57.3529 11.7941 57.3599 12.3644 57.359 12.9398C57.3615 13.1578 57.364 13.3759 57.3666 13.6006C57.3737 14.3214 57.3752 15.0419 57.376 15.7627C57.3784 16.267 57.3809 16.7713 57.3836 17.2756C57.3881 18.3341 57.3894 19.3927 57.389 20.4512C57.3889 21.7975 57.3991 23.1435 57.4121 24.4898C57.4205 25.5328 57.4219 26.5759 57.4215 27.619C57.4224 28.1146 57.4257 28.6102 57.4315 29.1058C57.4792 33.5597 56.7191 37.0214 53.75 40.5C53.6201 40.6605 53.4903 40.821 53.3565 40.9863C51.0228 43.608 47.3766 45.0069 43.9453 45.2334C39.9987 45.3276 36.5586 44.0083 33.6719 41.2969C31.783 39.2921 30.2373 36.5882 30.125 33.7969C30.1605 32.8999 30.2323 32.531 30.6875 31.7344C31.6278 30.9246 31.9515 30.7405 33.2344 30.7812C34.2369 30.8809 34.7886 31.2965 35.5 32C35.8609 32.6374 36.1263 33.3021 36.3906 33.9844C37.099 35.7774 37.7701 37.0604 39.5 38.0625C39.8171 38.2501 39.8171 38.2501 40.1406 38.4414C41.8754 39.3199 44.1165 39.2815 45.9737 38.8203C46.5946 38.5837 47.167 38.3182 47.75 38C47.9115 37.9123 48.0729 37.8247 48.2393 37.7344C49.9725 36.6469 50.9254 34.9792 51.4844 33.0469C52.0175 30.513 51.6942 28.446 50.4502 26.1748C49.2759 24.4146 47.5451 23.2266 45.5283 22.6045C42.9157 22.0878 40.736 22.743 38.4219 23.9219C37.1838 24.9872 36.4176 26.3524 35.75 27.8281C35.2667 28.8144 34.7822 29.302 33.75 29.75C32.4917 29.8767 31.7273 29.6809 30.7344 28.8906C30.1581 28.0353 30.0423 27.2472 30.0977 26.2275C30.7417 23.1517 32.77 20.5152 35.3438 18.7969C38.708 16.783 42.6365 16.0533 46.5069 16.9473C47.7674 17.3256 48.9122 17.7457 50 18.5C50.1563 19.125 50.1563 19.125 50.25 19.75C50.6178 20.1622 50.6178 20.1622 51 20.5C51.0037 20.2201 51.0073 19.9401 51.0111 19.6517C51.0256 18.6089 51.0449 17.5663 51.0656 16.5236C51.0739 16.0731 51.0809 15.6225 51.0866 15.172C51.0951 14.5228 51.1081 13.8737 51.1221 13.2246C51.1237 13.0245 51.1253 12.8245 51.1269 12.6184C51.1586 11.4016 51.3371 10.558 52 9.5C53.1803 8.48829 54.5617 8.45936 55.9531 9.04687Z" fill="url(#paint0_linear_9_129)"/>
<path d="M5.47712 9.00444C6.15527 9.53383 6.65997 9.94934 6.91204 10.7912C6.97632 11.431 6.98591 12.0504 6.97559 12.6934C6.97866 12.9243 6.98173 13.1552 6.9849 13.3932C6.99281 14.1269 6.98877 14.86 6.98438 15.5938C6.98765 16.0928 6.99171 16.5918 6.99658 17.0908C7.00678 18.3107 7.00626 19.5301 7 20.75C7.81004 19.9979 7.81004 19.9979 8.22168 18.9815C8.5 18.25 8.5 18.25 9.16113 17.8389C9.42249 17.7425 9.68385 17.6462 9.95312 17.5469C10.2125 17.4473 10.472 17.3477 10.7393 17.2451C14.2717 16.1069 18.4521 16.4644 21.7471 18.127C24.1576 19.5606 25.8575 21.284 27.1406 23.7656C27.2274 23.9308 27.3141 24.0959 27.4035 24.2661C27.9908 25.4814 28.1162 26.4021 28 27.75C27.5736 28.6029 27.2412 29.0959 26.4375 29.6094C25.4838 29.8045 24.6646 29.8313 23.75 29.5C22.7208 28.7113 22.188 27.6572 21.6562 26.5C20.7987 24.6884 19.3574 23.493 17.5 22.75C14.8141 22.123 12.347 22.5067 9.91895 23.8125C8.27905 24.912 7.21324 26.6007 6.65625 28.4844C6.16093 31.0538 6.52615 33.2891 7.82129 35.5645C9.02027 37.3212 10.7078 38.4403 12.75 39C15.3264 39.3038 17.3598 39.0011 19.5 37.5C21.0222 36.2637 21.5596 34.7963 22.208 32.9854C22.5737 32.0644 22.9148 31.5439 23.75 31C24.7957 30.6616 25.5361 30.6774 26.5781 31.0313C27.3437 31.5654 27.6534 31.8835 28 32.75C28.3699 35.2932 27.1506 37.8162 25.7031 39.8438C23.4986 42.5848 20.5627 44.6009 17.0342 45.1016C13.0664 45.5197 9.48809 44.5802 6.25 42.25C3.51329 39.9958 1.35736 36.7464 0.929615 33.1598C0.902093 32.565 0.895697 31.9742 0.898987 31.3787C0.897271 31.1564 0.895555 30.9341 0.893787 30.7051C0.889256 29.9791 0.890174 29.2533 0.891602 28.5274C0.89046 28.0189 0.889133 27.5104 0.88763 27.0019C0.885405 25.9403 0.885996 24.8787 0.888489 23.8171C0.89137 22.4581 0.886291 21.0992 0.87901 19.7402C0.874422 18.6918 0.874491 17.6435 0.875919 16.5952C0.875957 16.094 0.874448 15.5928 0.871346 15.0917C0.867621 14.3917 0.870285 13.692 0.874573 12.992C0.872156 12.7862 0.869739 12.5805 0.867249 12.3685C0.884167 11.0474 1.133 10.3037 2 9.25001C2.98246 8.47808 4.38872 8.42403 5.47712 9.00444Z" fill="url(#paint1_linear_9_129)"/>
<path d="M12.9531 2.70314C13.6039 3.35393 13.9568 3.86319 14.0601 4.78787C14.0585 5.07766 14.0585 5.07766 14.0568 5.37331C14.0567 5.59346 14.0567 5.81361 14.0567 6.04043C14.0541 6.27588 14.0515 6.51133 14.0488 6.75392C14.0481 6.99666 14.0474 7.2394 14.0467 7.4895C14.0439 8.26387 14.0376 9.03817 14.0313 9.81251C14.0288 10.3379 14.0265 10.8633 14.0244 11.3887C14.0189 12.6758 14.0103 13.9629 14 15.25C13.7289 15.327 13.4578 15.404 13.1785 15.4833C12.0193 15.8163 10.8718 16.1827 9.72267 16.5488C9.00002 16.75 9.00002 16.75 8.25002 16.75C8.22463 14.9617 8.20713 13.1735 8.19509 11.385C8.19006 10.7769 8.18324 10.1687 8.17458 9.56056C8.16242 8.68553 8.15677 7.81066 8.15236 6.93556C8.1472 6.66441 8.14204 6.39326 8.13672 6.1139C8.13627 4.58089 8.20778 3.65818 9.25002 2.50001C10.5004 1.72275 11.7454 1.92484 12.9531 2.70314Z" fill="url(#paint2_linear_9_129)"/>
<path d="M48.9531 2.6875C49.849 3.60896 50.0633 4.50332 50.0568 5.76642C50.0567 6.01158 50.0567 6.25674 50.0567 6.50933C50.0541 6.77083 50.0515 7.03234 50.0488 7.30176C50.0481 7.5719 50.0474 7.84203 50.0467 8.12035C50.0439 8.9813 50.0376 9.84219 50.0313 10.7031C50.0288 11.2876 50.0265 11.8721 50.0244 12.4565C50.0189 13.8877 50.0106 15.3189 50 16.75C49.1556 16.5863 48.3508 16.3868 47.5313 16.125C46.5163 15.8125 45.5509 15.6342 44.5 15.5C44.114 15.114 44.2126 14.7503 44.2058 14.2127C44.2026 13.9923 44.1994 13.772 44.196 13.5449C44.1942 13.3048 44.1924 13.0647 44.1904 12.8174C44.1884 12.5716 44.1864 12.3258 44.1843 12.0726C44.1809 11.5507 44.1782 11.0289 44.1762 10.507C44.1719 9.71079 44.161 8.91482 44.1499 8.11866C44.1474 7.61199 44.1453 7.10531 44.1436 6.59864C44.1392 6.36108 44.1348 6.12353 44.1303 5.87878C44.1351 4.42316 44.2857 3.61105 45.25 2.5C46.4982 1.72409 47.7368 1.93066 48.9531 2.6875Z" fill="url(#paint3_linear_9_129)"/>
<path d="M39.5127 5.52442C40.7566 6.43017 42.3022 7.60437 43 9C43.0212 9.4716 43.0268 9.94395 43.0244 10.416C43.0236 10.6964 43.0228 10.9768 43.022 11.2656C43.0188 11.7065 43.0188 11.7065 43.0156 12.1563C43.0145 12.4521 43.0134 12.7479 43.0122 13.0527C43.0093 13.7852 43.0051 14.5176 43 15.25C42.218 15.5216 41.5733 15.6166 40.75 15.5C39.7466 14.8314 38.9699 13.9778 38.1562 13.0938C37.8232 12.7501 37.8232 12.7501 37.4834 12.3994C35.0696 9.87602 35.0696 9.87602 34.8906 8.26563C34.9329 7.20066 35.3028 6.56334 36 5.75C37.0031 4.96186 38.4098 4.93409 39.5127 5.52442Z" fill="url(#paint4_linear_9_129)"/>
<path d="M21.25 5.25C22.006 5.68477 22.6044 6.20874 23 7C23.0859 7.52539 23.0859 7.52539 23.125 8.15625C23.1431 8.36057 23.1611 8.56488 23.1797 8.77539C22.8897 9.945 22.0683 10.6452 21.25 11.5C21.0894 11.6765 20.9288 11.853 20.7633 12.0348C20.272 12.5729 19.7703 13.0994 19.2656 13.625C19.0995 13.8068 18.9334 13.9885 18.7622 14.1758C17.5353 15.442 17.5353 15.442 16.6786 15.6162C16.124 15.6172 16.124 15.6172 15.25 15.5C14.6865 9.29355 14.6865 9.29355 15.9473 7.58691C17.399 6.02268 19.0144 4.86194 21.25 5.25Z" fill="url(#paint5_linear_9_129)"/>
<path d="M13.75 28.5C13.8325 28.9125 13.915 29.325 14 29.75C14.4125 29.75 14.825 29.75 15.25 29.75C15.3325 29.3375 15.415 28.925 15.5 28.5C16.4775 28.6448 17.0401 29.0765 17.75 29.75C18.485 30.8652 18.7565 31.9329 18.5 33.25C18.0415 34.4173 17.4016 35.2567 16.3125 35.8906C15.1723 36.3747 14.18 36.335 13 36C11.8114 35.4394 11.1809 34.7516 10.6592 33.5693C10.3613 32.5041 10.4206 31.5514 10.75 30.5C11.5445 29.2287 12.2091 28.5 13.75 28.5Z" fill="url(#paint6_linear_9_129)"/>
<path d="M42.75 28.5C42.915 28.9125 43.08 29.325 43.25 29.75C43.6625 29.75 44.075 29.75 44.5 29.75C44.5825 29.3375 44.665 28.925 44.75 28.5C45.6989 28.5279 46.1771 28.8355 46.8125 29.5C47.6215 30.5201 47.8484 31.4586 47.75 32.75C47.3579 34.0568 46.8078 34.8889 45.75 35.75C44.5564 36.3335 43.5108 36.3498 42.25 36C40.9804 35.3053 40.2092 34.6276 39.75 33.25C39.6579 31.846 39.6961 30.9558 40.5 29.75C41.7071 28.5 41.7071 28.5 42.75 28.5Z" fill="url(#paint7_linear_9_129)"/>
<path d="M24.25 43C25.3754 43.0804 26.0829 43.4441 27.0391 44.0166C28.2915 44.6508 29.3938 44.5883 30.6875 44.1875C31.3364 43.9475 31.762 43.7407 32.3125 43.3125C32.75 43 32.75 43 33.4375 43.0781C33.7159 43.1632 33.7159 43.1632 34 43.25C34.1238 43.8687 34.1238 43.8687 34.25 44.5C32.7079 46.0723 31.2914 46.9303 29.0586 47.0312C27.1975 46.9481 25.736 46.335 24.3164 45.1328C23.8223 44.535 23.9352 43.995 24 43.25C24.0825 43.1675 24.165 43.085 24.25 43Z" fill="url(#paint8_linear_9_129)"/>
<path d="M45 23.75C45.25 24 45.25 24 45.2969 24.6094C45.25 25.25 45.25 25.25 44.75 25.75C44.1963 25.8008 44.1963 25.8008 43.5156 25.8125C42.0472 25.9091 41.0792 26.421 39.8525 27.2051C39.25 27.5 39.25 27.5 38.6709 27.4199C38.4626 27.3358 38.4626 27.3358 38.25 27.25C38.0469 26.7031 38.0469 26.7031 38 26C39.07 24.5376 40.69 23.9316 42.4062 23.5469C43.3126 23.4965 44.1107 23.5721 45 23.75Z" fill="url(#paint9_linear_9_129)"/>
<path d="M18.6406 24.6094C19.2372 25.0187 19.7836 25.4443 20.25 26C20.1719 26.6719 20.1719 26.6719 20 27.25C19.5635 27.4121 19.5635 27.4121 19 27.5C18.4912 27.2598 18.4912 27.2598 17.9844 26.9063C16.7078 26.0291 15.6454 25.9397 14.124 25.8447C13.5 25.75 13.5 25.75 13 25.25C12.9688 24.5938 12.9688 24.5938 13 24C14.8005 23.0997 16.9785 23.5955 18.6406 24.6094Z" fill="url(#paint10_linear_9_129)"/>
<path d="M10.9844 25.0469C11.1545 25.1139 11.3247 25.1809 11.5 25.25C11.6094 25.7812 11.6094 25.7812 11.5 26.5C10.9947 27.1224 10.4441 27.5984 9.75 28C9.01562 27.9687 9.01562 27.9687 8.5 27.75C8.39062 27.0781 8.39062 27.0781 8.5 26.25C9.21613 25.4489 9.89937 24.9776 10.9844 25.0469Z" fill="url(#paint11_linear_9_129)"/>
<path d="M47.25 25C48.1352 25.0492 48.5022 25.2517 49.2031 25.8125C49.75 26.5 49.75 26.5 49.8281 27.2031C49.7895 27.4738 49.7895 27.4738 49.75 27.75C49.2344 27.9688 49.2344 27.9688 48.5 28C47.8525 27.5652 47.3022 27.049 46.75 26.5C46.9688 25.2812 46.9688 25.2812 47.25 25Z" fill="url(#paint12_linear_9_129)"/>
<path d="M35 19C35.165 19.0825 35.33 19.165 35.5 19.25C34.4275 20.3225 33.355 21.395 32.25 22.5C32.25 21.5754 32.4572 21.4215 33.0625 20.75C33.2133 20.5798 33.3641 20.4097 33.5195 20.2344C33.9844 19.7657 34.462 19.3809 35 19Z" fill="url(#paint13_linear_9_129)"/>
<path d="M9.75 25.25C9.915 25.3325 10.08 25.415 10.25 25.5C10.0541 25.6856 9.85812 25.8713 9.65625 26.0625C9.10874 26.6361 8.79317 27.0304 8.5 27.75C8.42188 27.0625 8.42188 27.0625 8.5 26.25C9.125 25.6562 9.125 25.6562 9.75 25.25Z" fill="url(#paint14_linear_9_129)"/>
<path d="M63.959 45.9459C64.201 45.9459 64.399 45.9276 64.553 45.8909C64.7143 45.8469 64.8427 45.7919 64.938 45.7259C65.0333 45.6526 65.0993 45.5682 65.136 45.4729C65.1727 45.3776 65.191 45.2712 65.191 45.1539C65.191 44.9046 65.0737 44.6992 64.839 44.5379C64.6043 44.3692 64.201 44.1896 63.629 43.9989C63.3797 43.9109 63.1303 43.8119 62.881 43.7019C62.6317 43.5846 62.408 43.4416 62.21 43.2729C62.012 43.0969 61.8507 42.8879 61.726 42.6459C61.6013 42.3966 61.539 42.0959 61.539 41.7439C61.539 41.3919 61.605 41.0766 61.737 40.7979C61.869 40.5119 62.056 40.2699 62.298 40.0719C62.54 39.8739 62.8333 39.7236 63.178 39.6209C63.5227 39.5109 63.9113 39.4559 64.344 39.4559C64.8573 39.4559 65.301 39.5109 65.675 39.6209C66.049 39.7309 66.357 39.8519 66.599 39.9839L66.104 41.3369C65.8913 41.2269 65.653 41.1316 65.389 41.0509C65.1323 40.9629 64.8207 40.9189 64.454 40.9189C64.0433 40.9189 63.7463 40.9776 63.563 41.0949C63.387 41.2049 63.299 41.3772 63.299 41.6119C63.299 41.7512 63.332 41.8686 63.398 41.9639C63.464 42.0592 63.5557 42.1472 63.673 42.2279C63.7977 42.3012 63.937 42.3709 64.091 42.4369C64.2523 42.4956 64.4283 42.5579 64.619 42.6239C65.015 42.7706 65.3597 42.9172 65.653 43.0639C65.9463 43.2032 66.1883 43.3682 66.379 43.5589C66.577 43.7496 66.7237 43.9732 66.819 44.2299C66.9143 44.4866 66.962 44.7982 66.962 45.1649C66.962 45.8762 66.7127 46.4299 66.214 46.8259C65.7153 47.2146 64.9637 47.4089 63.959 47.4089C63.6217 47.4089 63.3173 47.3869 63.046 47.3429C62.7747 47.3062 62.5327 47.2586 62.32 47.1999C62.1147 47.1412 61.935 47.0789 61.781 47.0129C61.6343 46.9469 61.5097 46.8846 61.407 46.8259L61.891 45.4619C62.1183 45.5866 62.397 45.7002 62.727 45.8029C63.0643 45.8982 63.475 45.9459 63.959 45.9459ZM75.0415 39.6319V41.0949H72.7425V47.2549H71.0265V41.0949H68.7275V39.6319H75.0415ZM80.4453 47.4089C79.91 47.4089 79.448 47.3356 79.0593 47.1889C78.6707 47.0349 78.348 46.8259 78.0913 46.5619C77.842 46.2906 77.655 45.9716 77.5303 45.6049C77.413 45.2309 77.3543 44.8202 77.3543 44.3729V39.6319H79.0703V44.2299C79.0703 44.5379 79.1033 44.8019 79.1693 45.0219C79.2427 45.2346 79.338 45.4106 79.4553 45.5499C79.58 45.6819 79.7267 45.7772 79.8953 45.8359C80.0713 45.8946 80.262 45.9239 80.4673 45.9239C80.8853 45.9239 81.2227 45.7956 81.4793 45.5389C81.7433 45.2822 81.8753 44.8459 81.8753 44.2299V39.6319H83.5913V44.3729C83.5913 44.8202 83.529 45.2309 83.4043 45.6049C83.2797 45.9789 83.089 46.3016 82.8323 46.5729C82.5757 46.8369 82.2493 47.0422 81.8533 47.1889C81.4573 47.3356 80.988 47.4089 80.4453 47.4089ZM88.2777 45.8579C88.3583 45.8652 88.45 45.8726 88.5527 45.8799C88.6627 45.8799 88.791 45.8799 88.9377 45.8799C89.7957 45.8799 90.43 45.6636 90.8407 45.2309C91.2587 44.7982 91.4677 44.2006 91.4677 43.4379C91.4677 42.6386 91.2697 42.0336 90.8737 41.6229C90.4777 41.2122 89.8507 41.0069 88.9927 41.0069C88.8753 41.0069 88.7543 41.0106 88.6297 41.0179C88.505 41.0179 88.3877 41.0252 88.2777 41.0399V45.8579ZM93.2387 43.4379C93.2387 44.0979 93.136 44.6736 92.9307 45.1649C92.7253 45.6562 92.432 46.0632 92.0507 46.3859C91.6767 46.7086 91.2183 46.9506 90.6757 47.1119C90.133 47.2732 89.5243 47.3539 88.8497 47.3539C88.5417 47.3539 88.1823 47.3392 87.7717 47.3099C87.361 47.2879 86.9577 47.2366 86.5617 47.1559V39.7309C86.9577 39.6576 87.3683 39.6099 87.7937 39.5879C88.2263 39.5586 88.5967 39.5439 88.9047 39.5439C89.5573 39.5439 90.1477 39.6172 90.6757 39.7639C91.211 39.9106 91.6693 40.1416 92.0507 40.4569C92.432 40.7722 92.7253 41.1756 92.9307 41.6669C93.136 42.1582 93.2387 42.7486 93.2387 43.4379ZM95.992 39.6319H97.708V47.2549H95.992V39.6319ZM102.233 43.4379C102.233 43.8119 102.277 44.1492 102.365 44.4499C102.461 44.7506 102.593 45.0109 102.761 45.2309C102.937 45.4436 103.15 45.6086 103.399 45.7259C103.649 45.8432 103.935 45.9019 104.257 45.9019C104.573 45.9019 104.855 45.8432 105.104 45.7259C105.361 45.6086 105.574 45.4436 105.742 45.2309C105.918 45.0109 106.05 44.7506 106.138 44.4499C106.234 44.1492 106.281 43.8119 106.281 43.4379C106.281 43.0639 106.234 42.7266 106.138 42.4259C106.05 42.1179 105.918 41.8576 105.742 41.6449C105.574 41.4249 105.361 41.2562 105.104 41.1389C104.855 41.0216 104.573 40.9629 104.257 40.9629C103.935 40.9629 103.649 41.0252 103.399 41.1499C103.15 41.2672 102.937 41.4359 102.761 41.6559C102.593 41.8686 102.461 42.1289 102.365 42.4369C102.277 42.7376 102.233 43.0712 102.233 43.4379ZM108.052 43.4379C108.052 44.0906 107.953 44.6662 107.755 45.1649C107.565 45.6562 107.301 46.0706 106.963 46.4079C106.626 46.7379 106.223 46.9872 105.753 47.1559C105.291 47.3246 104.793 47.4089 104.257 47.4089C103.737 47.4089 103.245 47.3246 102.783 47.1559C102.321 46.9872 101.918 46.7379 101.573 46.4079C101.229 46.0706 100.957 45.6562 100.759 45.1649C100.561 44.6662 100.462 44.0906 100.462 43.4379C100.462 42.7852 100.565 42.2132 100.77 41.7219C100.976 41.2232 101.251 40.8052 101.595 40.4679C101.947 40.1306 102.351 39.8776 102.805 39.7089C103.267 39.5402 103.751 39.4559 104.257 39.4559C104.778 39.4559 105.269 39.5402 105.731 39.7089C106.193 39.8776 106.597 40.1306 106.941 40.4679C107.286 40.8052 107.557 41.2232 107.755 41.7219C107.953 42.2132 108.052 42.7852 108.052 43.4379ZM112.882 45.9459C113.124 45.9459 113.322 45.9276 113.476 45.8909C113.637 45.8469 113.766 45.7919 113.861 45.7259C113.956 45.6526 114.022 45.5682 114.059 45.4729C114.096 45.3776 114.114 45.2712 114.114 45.1539C114.114 44.9046 113.997 44.6992 113.762 44.5379C113.527 44.3692 113.124 44.1896 112.552 43.9989C112.303 43.9109 112.053 43.8119 111.804 43.7019C111.555 43.5846 111.331 43.4416 111.133 43.2729C110.935 43.0969 110.774 42.8879 110.649 42.6459C110.524 42.3966 110.462 42.0959 110.462 41.7439C110.462 41.3919 110.528 41.0766 110.66 40.7979C110.792 40.5119 110.979 40.2699 111.221 40.0719C111.463 39.8739 111.756 39.7236 112.101 39.6209C112.446 39.5109 112.834 39.4559 113.267 39.4559C113.78 39.4559 114.224 39.5109 114.598 39.6209C114.972 39.7309 115.28 39.8519 115.522 39.9839L115.027 41.3369C114.814 41.2269 114.576 41.1316 114.312 41.0509C114.055 40.9629 113.744 40.9189 113.377 40.9189C112.966 40.9189 112.669 40.9776 112.486 41.0949C112.31 41.2049 112.222 41.3772 112.222 41.6119C112.222 41.7512 112.255 41.8686 112.321 41.9639C112.387 42.0592 112.479 42.1472 112.596 42.2279C112.721 42.3012 112.86 42.3709 113.014 42.4369C113.175 42.4956 113.351 42.5579 113.542 42.6239C113.938 42.7706 114.283 42.9172 114.576 43.0639C114.869 43.2032 115.111 43.3682 115.302 43.5589C115.5 43.7496 115.647 43.9732 115.742 44.2299C115.837 44.4866 115.885 44.7982 115.885 45.1649C115.885 45.8762 115.636 46.4299 115.137 46.8259C114.638 47.2146 113.887 47.4089 112.882 47.4089C112.545 47.4089 112.24 47.3869 111.969 47.3429C111.698 47.3062 111.456 47.2586 111.243 47.1999C111.038 47.1412 110.858 47.0789 110.704 47.0129C110.557 46.9469 110.433 46.8846 110.33 46.8259L110.814 45.4619C111.041 45.5866 111.32 45.7002 111.65 45.8029C111.987 45.8982 112.398 45.9459 112.882 45.9459Z" fill="url(#paint15_linear_9_129)"/>
<path d="M66.44 23.12C66.44 24.48 66.6 25.7067 66.92 26.8C67.2667 27.8933 67.7467 28.84 68.36 29.64C69 30.4133 69.7733 31.0133 70.68 31.44C71.5867 31.8667 72.6267 32.08 73.8 32.08C74.9467 32.08 75.9733 31.8667 76.88 31.44C77.8133 31.0133 78.5867 30.4133 79.2 29.64C79.84 28.84 80.32 27.8933 80.64 26.8C80.9867 25.7067 81.16 24.48 81.16 23.12C81.16 21.76 80.9867 20.5333 80.64 19.44C80.32 18.32 79.84 17.3733 79.2 16.6C78.5867 15.8 77.8133 15.1867 76.88 14.76C75.9733 14.3333 74.9467 14.12 73.8 14.12C72.6267 14.12 71.5867 14.3467 70.68 14.8C69.7733 15.2267 69 15.84 68.36 16.64C67.7467 17.4133 67.2667 18.36 66.92 19.48C66.6 20.5733 66.44 21.7867 66.44 23.12ZM87.6 23.12C87.6 25.4933 87.24 27.5867 86.52 29.4C85.8267 31.1867 84.8667 32.6933 83.64 33.92C82.4133 35.12 80.9467 36.0267 79.24 36.64C77.56 37.2533 75.7467 37.56 73.8 37.56C71.9067 37.56 70.12 37.2533 68.44 36.64C66.76 36.0267 65.2933 35.12 64.04 33.92C62.7867 32.6933 61.8 31.1867 61.08 29.4C60.36 27.5867 60 25.4933 60 23.12C60 20.7467 60.3733 18.6667 61.12 16.88C61.8667 15.0667 62.8667 13.5467 64.12 12.32C65.4 11.0933 66.8667 10.1733 68.52 9.56C70.2 8.94666 71.96 8.64 73.8 8.64C75.6933 8.64 77.48 8.94666 79.16 9.56C80.84 10.1733 82.3067 11.0933 83.56 12.32C84.8133 13.5467 85.8 15.0667 86.52 16.88C87.24 18.6667 87.6 20.7467 87.6 23.12ZM109.162 37C108.602 36.0933 107.935 35.12 107.162 34.08C106.415 33.0133 105.588 31.96 104.682 30.92C103.802 29.8533 102.882 28.84 101.922 27.88C100.962 26.8933 100.002 26.0267 99.0416 25.28V37H92.8016V9.28H99.0416V19.76C100.668 18.0533 102.295 16.28 103.922 14.44C105.575 12.5733 107.108 10.8533 108.522 9.28H115.922C114.028 11.52 112.122 13.68 110.202 15.76C108.308 17.84 106.308 19.9333 104.202 22.04C106.415 23.88 108.548 26.0667 110.602 28.6C112.682 31.1333 114.668 33.9333 116.562 37H109.162Z" fill="url(#paint16_linear_9_129)"/>
<defs>
<linearGradient id="paint0_linear_9_129" x1="38.8545" y1="8.65994" x2="62.0296" y2="21.9742" gradientUnits="userSpaceOnUse">
<stop offset="0.0646853" stop-color="#4F16E0"/>
<stop offset="1" stop-color="#8F11A8"/>
</linearGradient>
<linearGradient id="paint1_linear_9_129" x1="9.58881" y1="8.61386" x2="32.702" y2="21.8182" gradientUnits="userSpaceOnUse">
<stop offset="0.0646853" stop-color="#4F16E0"/>
<stop offset="1" stop-color="#8F11A8"/>
</linearGradient>
<linearGradient id="paint2_linear_9_129" x1="10.0361" y1="2.00845" x2="16.1313" y2="3.89039" gradientUnits="userSpaceOnUse">
<stop offset="0.0646853" stop-color="#4F16E0"/>
<stop offset="1" stop-color="#8F11A8"/>
</linearGradient>
<linearGradient id="paint3_linear_9_129" x1="46.0307" y1="2.00958" x2="52.1285" y2="3.89349" gradientUnits="userSpaceOnUse">
<stop offset="0.0646853" stop-color="#4F16E0"/>
<stop offset="1" stop-color="#8F11A8"/>
</linearGradient>
<linearGradient id="paint4_linear_9_129" x1="37.4989" y1="5.11591" x2="44.2456" y2="9.15781" gradientUnits="userSpaceOnUse">
<stop offset="0.0646853" stop-color="#4F16E0"/>
<stop offset="1" stop-color="#8F11A8"/>
</linearGradient>
<linearGradient id="paint5_linear_9_129" x1="17.5474" y1="5.17465" x2="24.3571" y2="9.32934" gradientUnits="userSpaceOnUse">
<stop offset="0.0646853" stop-color="#4F16E0"/>
<stop offset="1" stop-color="#8F11A8"/>
</linearGradient>
<linearGradient id="paint6_linear_9_129" x1="13.0724" y1="28.5" x2="18.6282" y2="32.9758" gradientUnits="userSpaceOnUse">
<stop offset="0.0646853" stop-color="#4F16E0"/>
<stop offset="1" stop-color="#8F11A8"/>
</linearGradient>
<linearGradient id="paint7_linear_9_129" x1="42.2982" y1="28.5" x2="47.8317" y2="32.9304" gradientUnits="userSpaceOnUse">
<stop offset="0.0646853" stop-color="#4F16E0"/>
<stop offset="1" stop-color="#8F11A8"/>
</linearGradient>
<linearGradient id="paint8_linear_9_129" x1="27.2466" y1="43" x2="29.6368" y2="47.6967" gradientUnits="userSpaceOnUse">
<stop offset="0.0646853" stop-color="#4F16E0"/>
<stop offset="1" stop-color="#8F11A8"/>
</linearGradient>
<linearGradient id="paint9_linear_9_129" x1="40.3397" y1="23.5316" x2="43.0527" y2="27.3984" gradientUnits="userSpaceOnUse">
<stop offset="0.0646853" stop-color="#4F16E0"/>
<stop offset="1" stop-color="#8F11A8"/>
</linearGradient>
<linearGradient id="paint10_linear_9_129" x1="15.3088" y1="23.5295" x2="18.0585" y2="27.4" gradientUnits="userSpaceOnUse">
<stop offset="0.0646853" stop-color="#4F16E0"/>
<stop offset="1" stop-color="#8F11A8"/>
</linearGradient>
<linearGradient id="paint11_linear_9_129" x1="9.43252" y1="25.0402" x2="11.562" y2="26.7893" gradientUnits="userSpaceOnUse">
<stop offset="0.0646853" stop-color="#4F16E0"/>
<stop offset="1" stop-color="#8F11A8"/>
</linearGradient>
<linearGradient id="paint12_linear_9_129" x1="47.737" y1="25" x2="49.8765" y2="26.6868" gradientUnits="userSpaceOnUse">
<stop offset="0.0646853" stop-color="#4F16E0"/>
<stop offset="1" stop-color="#8F11A8"/>
</linearGradient>
<linearGradient id="paint13_linear_9_129" x1="33.2921" y1="19" x2="35.7194" y2="20.7319" gradientUnits="userSpaceOnUse">
<stop offset="0.0646853" stop-color="#4F16E0"/>
<stop offset="1" stop-color="#8F11A8"/>
</linearGradient>
<linearGradient id="paint14_linear_9_129" x1="9.02133" y1="25.25" x2="10.5786" y2="26.1157" gradientUnits="userSpaceOnUse">
<stop offset="0.0646853" stop-color="#4F16E0"/>
<stop offset="1" stop-color="#8F11A8"/>
</linearGradient>
<linearGradient id="paint15_linear_9_129" x1="78.9564" y1="37.2549" x2="84.047" y2="54.4419" gradientUnits="userSpaceOnUse">
<stop offset="0.0646853" stop-color="#4F16E0"/>
<stop offset="1" stop-color="#8F11A8"/>
</linearGradient>
<linearGradient id="paint16_linear_9_129" x1="76.9183" y1="2.32151e-06" x2="109.993" y2="33.249" gradientUnits="userSpaceOnUse">
<stop offset="0.0646853" stop-color="#4F16E0"/>
<stop offset="1" stop-color="#8F11A8"/>
</linearGradient>
</defs>
</svg>
